# xmcd
#
# Track frame offsets: 
#        150
#        23770
#        44785
#        70117
#        96745
#        137110
#        155377
#        170242
#        184317
#        214302
#        241960
#        266920
#
# Disc length: 4053 seconds
#
# Revision: 0
# Processed by: cddbd v1.5.2PL0 Copyright (c) Steve Scherf et al.
# Submitted via: ExactAudioCopy v0.99pb5
#
DISCID=bf0fd30c
DTITLE=The Velvet Underground - The Great Banana
DYEAR=1967
DGENRE=Blues
TTITLE0=Ocean
TTITLE1=Too much
TTITLE2=Waiting fo my man
TTITLE3=Lisa says
TTITLE4=What Goes on
TTITLE5=Sweet Jane
TTITLE6=We're gonna have a real good time together
TTITLE7=Femme fatale
TTITLE8=New age
TTITLE9=Rock and roll
TTITLE10=Beginning to see the light
TTITLE11=Heroin
EXTD=
EXTT0=
EXTT1=
EXTT2=
EXTT3=
EXTT4=
EXTT5=
EXTT6=
EXTT7=
EXTT8=
EXTT9=
EXTT10=
EXTT11=
PLAYORDER=
